<?xml version="1.0" standalone="no"?>
<!DOCTYPE svg PUBLIC "-//W3C//DTD SVG 1.1//EN" "http://www.w3.org/Graphics/SVG/1.1/DTD/svg11.dtd" >
<!--
2013-9-30: Created.
-->
<svg>
<metadata>
Created by iconfont
</metadata>
<defs>

<font id="dora-icon" horiz-adv-x="1024" >
  <font-face
    font-family="dora-icon"
    font-weight="500"
    font-stretch="normal"
    units-per-em="1024"
    ascent="896"
    descent="-128"
  />
    <missing-glyph />

    <glyph glyph-name="BIbaobiao" unicode="&#58922;" d="M175.542857 822.857143h672.914286a73.142857 73.142857 0 0 0 73.142857-73.142857v-804.571429a73.142857 73.142857 0 0 0-73.142857-73.142857H175.542857a73.142857 73.142857 0 0 0-73.142857 73.142857V749.714286a73.142857 73.142857 0 0 0 73.142857 73.142857z m115.126857-585.142857a36.571429 36.571429 0 0 1-36.571428-36.571429v-219.428571a36.571429 36.571429 0 0 1 36.571428-36.571429h2.706286a36.571429 36.571429 0 0 1 36.571429 36.571429v219.428571a36.571429 36.571429 0 0 1-36.571429 36.571429h-2.706286z m151.698286 146.285714a36.571429 36.571429 0 0 1-36.571429-36.571429v-365.714285a36.571429 36.571429 0 0 1 36.571429-36.571429h2.706286a36.571429 36.571429 0 0 1 36.571428 36.571429v365.714285a36.571429 36.571429 0 0 1-36.571428 36.571429h-2.706286z m151.698286-146.285714a36.571429 36.571429 0 0 1-36.571429-36.571429v-219.428571a36.571429 36.571429 0 0 1 36.571429-36.571429h2.706285a36.571429 36.571429 0 0 1 36.571429 36.571429v219.428571a36.571429 36.571429 0 0 1-36.571429 36.571429h-2.706285z m151.698285 146.285714a36.571429 36.571429 0 0 1-36.571428-36.571429v-365.714285a36.571429 36.571429 0 0 1 36.571428-36.571429h2.706286a36.571429 36.571429 0 0 1 36.571429 36.571429v365.714285a36.571429 36.571429 0 0 1-36.571429 36.571429h-2.706286z m115.126858 292.571429H481.645714v-107.666286h379.245715V676.571429z m-78.555429-78.774858a25.380571 25.380571 0 0 0-25.892571 24.868572c0 13.897143 11.629714 25.014857 25.892571 25.014857 14.262857 0 25.819429-11.190857 25.819429-24.941714 0-13.750857-11.556571-24.868571-25.819429-24.868572z m-123.099429 0a25.380571 25.380571 0 0 0-25.819428 24.868572c0 13.897143 11.556571 25.014857 25.819428 25.014857 14.336 0 25.892571-11.190857 25.892572-24.941714 0-13.750857-11.556571-24.868571-25.892572-24.868572z m-124.050285 0a25.380571 25.380571 0 0 0-25.819429 24.868572c0 13.897143 11.556571 25.014857 25.819429 25.014857 14.262857 0 25.819429-11.190857 25.819428-24.941714 0-13.750857-11.556571-24.868571-25.819428-24.868572zM178.249143 676.571429v-187.172572h69.997714c19.456 0 34.816 4.827429 46.08 14.482286 11.337143 9.654857 16.969143 22.893714 16.969143 39.789714 0 24.576-14.701714 39.204571-44.105143 43.812572v1.243428a45.787429 45.787429 0 0 1 28.233143 13.165714 37.888 37.888 0 0 1 10.386286 27.282286c0 16.676571-5.412571 28.745143-16.384 36.205714-10.971429 7.460571-28.525714 11.190857-52.736 11.190858h-58.441143z m24.868571-79.36v59.026285h35.035429c14.628571 0 25.380571-2.194286 32.182857-6.656 6.729143-4.461714 10.166857-11.776 10.166857-22.016 0-10.898286-3.218286-18.651429-9.508571-23.332571-6.363429-4.681143-16.384-7.021714-30.208-7.021714h-37.741715z m0-19.968h38.985143c28.672 0 43.008-10.825143 43.008-32.548572 0-23.405714-13.750857-35.108571-41.252571-35.108571h-40.813715v67.657143zM427.227429 489.325714v15.725715l-39.058286 2.56V658.285714l39.058286 2.56V676.571429h-103.131429v-15.725715l39.204571-2.56V507.611429l-39.131428-2.56v-15.725715h103.058286z"  horiz-adv-x="1024" />


    <glyph glyph-name="shujushuchu" unicode="&#58923;" d="M946.541714 399.36a12.214857 12.214857 0 0 0 4.315429-9.142857v-505.563429c0-3.364571-1.462857-6.582857-3.949714-8.923428a14.116571 14.116571 0 0 0-9.654858-3.730286H86.747429C79.213714-128 73.142857-122.368 73.142857-115.346286V390.217143c0 1.462857 0.292571 2.925714 0.731429 4.242286H73.142857l140.214857 355.474285H364.982857v-27.062857H245.248L148.992 402.870857h204.653714l156.086857-125.878857 147.017143 125.805714h206.921143l-96.256 320.073143H649.947429v27.062857h153.892571L946.468571 399.36zM186.660571 4.022857l188.196572 131.657143 94.866286-116.077714L748.251429 191.634286l47.469714-58.075429 19.017143 127.488-137.654857 17.700572 47.469714-58.075429-247.076572-150.162286-94.939428 116.150857L162.962286 32.914286l23.698285-29.037715z m254.244572 655.579429H362.422857L511.634286 822.857143l145.042285-163.328H578.194286v-177.005714H440.905143v177.005714z m0-199.68h137.289143v-22.674286H440.905143v22.674286z"  horiz-adv-x="1024" />


    <glyph glyph-name="huo" unicode="&#58886;" d="M775.093 637.647c-116.478-35.083-137.803-134.53-130.29-197.693-83.093 103.15-79.681 221.81-79.681 392.763-266.493-106.12-204.517-412.087-212.487-505-67.03 57.94-79.696 196.38-79.696 196.38-70.76-38.453-106.242-141.147-106.242-224.447 0-201.437 154.599-364.724 345.303-364.724S857.303 98.213 857.303 299.65c0 119.71-83.218 174.931-82.21 337.997z"  horiz-adv-x="1024" />


    <glyph glyph-name="yuandianz" unicode="&#59224;" d="M515.71014492 387.71014493m-300.52173913 0a4.69565217 4.69565217 0 1 1 601.04347826 0 4.69565217 4.69565217 0 1 1-601.04347826 0Z"  horiz-adv-x="1024" />


    <glyph glyph-name="jiaoseguanliquanxianbianji" unicode="&#58919;" d="M526.4 896l425.024-155.072a38.208 38.208 0 0 0 26.944-36.864v-286.72c0-340.992-371.456-490.816-462.4-537.344a37.76 37.76 0 0 0-33.92 0C390.976-73.6 43.392 74.688 43.392 415.296V703.04a39.488 39.488 0 0 0 26.112 36.8L500.544 896h25.856z m-15.552-255.04a127.488 127.488 0 0 1-41.92-247.936 38.848 38.848 0 0 1-0.576-7.04v-212.48a42.496 42.496 0 1 1 84.992 0V385.92a37.376 37.376 0 0 1-0.64 7.04 127.552 127.552 0 0 1-41.792 247.936h-0.064z"  horiz-adv-x="1024" />


    <glyph glyph-name="weiduyemianshezhiluojibiao" unicode="&#58920;" d="M973.132654 33.658223c20.850213-9.337825 39.014202-25.327252 41.764383-46.177465 15.989427-43.491241-4.924744-91.843269-48.352027-107.832695a82.633359 82.633359 0 0 0-107.768738 47.840365H224.507682c-6.587644-22.513113-22.513113-38.50254-43.427284-47.840365a83.14502 83.14502 0 0 0-109.9433 43.491241c-18.100031 41.252722 0 91.843269 43.491242 110.007258v639.577079a89.924537 89.924537 0 0 0-39.07816 36.83964c-20.914171 41.252722-2.174562 89.668707 36.83964 112.245778 39.014202 22.513113 91.779311 6.587644 112.117862-34.665078h640.856234c9.401783 16.501089 23.088733 30.251996 41.252721 36.83964 41.252722 18.163989 91.779311-2.174562 109.9433-43.491242 18.100031-41.188764 0-91.779311-43.491241-110.007257v-636.826899z m-232.16648 335.394221v43.874988h-178.442006v47.840365h74.766561V645.157869h-209.781282v-184.901733h72.719914v-47.840366H325.816691v-112.117862H251.050131V109.320192h209.781282V300.297908H387.663795v49.823055H678.159704v-49.887013H605.375833v-190.8498h209.781282V300.297908h-74.702603l0.511662 68.754536z"  horiz-adv-x="1024" />


    <glyph glyph-name="yonghuguanliyemianzhongzhimima" unicode="&#58921;" d="M750.016 525.44h97.024c26.816 0.064 48.64-22.656 48.96-51.008v-513.088c-0.32-28.288-22.144-51.072-48.96-50.944H176.96c-26.88 0-48.96 22.912-48.96 50.88V474.368c0.256 28.352 22.144 51.2 48.96 51.072h99.84V647.552C276.736 896 512 896 512 896c259.328 0 238.016-246.976 238.016-246.976V525.44z m-385.28 0h296.832V649.6c0 158.72-144.96 153.92-144.96 153.92C362.88 803.52 364.8 647.552 364.8 647.552V525.44z m203.072-228.48l119.04-11.392-35.584 117.632-28.288-36.032A175.36 175.36 0 0 1 516.48 403.2c-99.008 0-179.328-82.752-179.328-184.768 0-102.08 80.32-184.832 179.328-184.832 74.304-0.064 140.992 47.168 167.68 118.848a27.2 27.2 0 0 1-0.576 20.224 25.408 25.408 0 0 1-47.36-1.344 128.32 128.32 0 0 0-119.68-84.928c-70.784 0-128.192 59.072-128.192 132.032 0 72.832 57.408 131.968 128.192 131.968 27.072 0 52.8-8.704 74.112-24.32l-22.848-29.12z"  horiz-adv-x="1024" />


    <glyph glyph-name="tiaoduguanlixiaxian" unicode="&#58913;" d="M375.488 256.64V512.384c0 38.336 27.264 63.936 68.224 63.936h136.576c40.96 0 68.224-25.6 68.224-64V256.64h191.168c6.848 0 20.48-6.4 27.328-6.4 13.632-12.8 13.632-32 0-44.736l-327.68-306.88a34.56 34.56 0 0 0-47.808 0l-327.68 300.48c-6.848 6.4-13.632 19.2-13.632 25.6 0 19.2 13.632 32 34.112 32h191.168zM409.6 704.128h204.8c20.48 0 34.112-12.8 34.112-32 0-19.136-13.632-31.936-34.112-31.936H409.6c-20.48 0-34.112 12.8-34.112 32s13.632 32 34.112 32zM409.6 832h204.8c20.48 0 34.112-12.8 34.112-32s-13.632-31.936-34.112-31.936H409.6c-20.48 0-34.112 12.8-34.112 32S389.12 832 409.6 832z"  horiz-adv-x="1024" />


    <glyph glyph-name="tiaoduguanlishangxian" unicode="&#58915;" d="M375.488 511.36v-255.744c0-38.336 27.264-63.936 68.224-63.936h136.576c40.96 0 68.224 25.6 68.224 64V511.36h191.168c6.848 0 20.48 6.4 27.328 6.4 13.632 12.8 13.632 32 0 44.736L539.328 869.376a34.56 34.56 0 0 1-47.808 0L163.84 568.896c-6.848-6.4-13.632-19.2-13.632-25.6 0-19.2 13.632-32 34.112-32h191.168z m34.112-447.488h204.8c20.48 0 34.112 12.8 34.112 32 0 19.136-13.632 31.936-34.112 31.936H409.6c-20.48 0-34.112-12.8-34.112-32s13.632-32 34.112-32zM409.6-64h204.8c20.48 0 34.112 12.8 34.112 32s-13.632 31.936-34.112 31.936H409.6c-20.48 0-34.112-12.8-34.112-32S389.12-64 409.6-64z"  horiz-adv-x="1024" />


    <glyph glyph-name="tiaoduguanlilijizhihang" unicode="&#58917;" d="M404.673006 430.714762c-31.935701 69.503348-39.999625 140.926679-23.039784 214.909985 14.079868 61.439424 44.159586 114.302928 89.151164 158.078518C534.783786 865.910682 612.479058 896.630394 701.374225 895.9904a313.59706 313.59706 0 0 0 217.853957-86.975185 324.28496 324.28496 0 0 0 49.791533-417.788083c-91.519142-136.958716-263.933526-182.078293-410.236154-113.918932l-89.279163-89.343162c-16.511845 13.183876-31.743702 26.239754-47.93555 37.951644-12.479883 9.087915-25.791758 17.407837-42.239604 17.727834-11.455893 0.255998-19.263819-9.279913-17.279838-21.759796 3.007972-18.239829 13.119877-32.703693 23.807777-46.847561 9.855908-12.927879 20.671806-25.215764 30.84771-37.439649l-51.071521-51.007522c-9.343912 7.999925-18.815824 16.639844-28.79973 24.51177-16.319847 12.79988-32.639694 25.663759-53.759496 30.079718-16.127849 3.455968-25.983756-8.959916-23.039784-23.039784 3.583966-17.535836 13.503873-31.871701 24.063775-45.631572 9.663909-12.671881 20.415809-24.57577 30.463714-36.607657l-51.647516-51.071521c-7.167933 6.271941-15.295857 13.82387-23.807777 20.799805-16.959841 13.82387-33.919682 27.839739-55.935475 33.08769-13.951869 3.327969-27.071746-2.943972-24.959766-19.327819a51.455518 51.455518 0 0 1 5.631947-19.583816c8.51192-14.271866 17.919832-28.031737 27.71174-41.343613 6.591938-8.959916 14.527864-16.831842 22.015794-25.343762-19.071821-19.007822-38.271641-38.271641-57.59946-57.407462-0.959991-0.959991-2.559976-1.791983-3.839964-1.727984-10.879898 0.575995-21.759796 1.471986-32.639694 1.983982-17.727834 0.895992-35.455668 1.535986-53.247501 2.367978-14.463864 0.639994-28.991728 1.407987-43.519592 2.303978-4.479958 0.255998-8.895917 1.02399-13.695872 1.599985-0.511995 5.631947-1.151989 11.391893-1.471986 17.215839l-2.303978 56.063474c-0.639994 14.079868-1.407987 28.287735-2.303979 42.367603-0.511995 8.959916-1.343987 17.983831-1.919982 26.943747a6.207942 6.207942 0 0 0 1.023991 3.519967c0.831992 1.279988 2.11198 2.17598 3.19997 3.26397l394.6843 394.748299c1.471986 1.471986 3.007972 2.815974 4.735955 4.415958z m293.117252 247.869676a107.390993 107.390993 0 0 1-107.582991-108.030987c0.511995-59.135446 44.543582-106.623 107.71099-107.326994a106.431002 106.431002 0 0 1 107.454993 103.871026 107.646991 107.646991 0 0 1-107.646991 111.486955z"  horiz-adv-x="1024" />


    <glyph glyph-name="tiaoduguanlitiaodurizhi" unicode="&#58918;" d="M933.632 822.72H180.352v-103.552h0.256V-9.6H180.48v-106.56H933.76c34.56 0 60.288 29.952 60.288 64.384V761.856c0 34.56-25.728 60.8-60.416 60.8z m-565.568-876.16H249.28V760h118.784v-813.44zM276.096 497.28H119.68c-26.24 0-47.616 19.072-47.616 42.496v19.904c0 23.36 21.44 42.496 47.616 42.496h156.352c26.24 0 47.616-19.136 47.616-42.496v-19.904c0-23.424-21.44-42.56-47.616-42.56z m0-407.04H119.68c-26.24 0-47.616 19.072-47.616 42.496v19.904c0 23.424 21.44 42.56 47.616 42.56h156.352c26.24 0 47.616-19.2 47.616-42.56v-19.904c0-23.424-21.44-42.56-47.616-42.56z m4.352 203.456H124.224c-26.24 0-47.68 19.136-47.68 42.496v19.904c0 23.424 21.44 42.56 47.68 42.56h156.224c26.24 0 47.68-19.2 47.68-42.56v-19.84c0-23.424-21.44-42.56-47.68-42.56z"  horiz-adv-x="1024" />


    <glyph glyph-name="yijidaohang" unicode="&#58912;" d="M110.023111 643.754667c0-13.738667 5.461333-27.363556 14.904889-37.12 9.443556-9.728 22.670222-15.36 35.982222-15.36 13.312 0 26.538667 5.632 35.982222 15.36 9.443556 9.756444 14.904889 23.381333 14.904889 37.12s-5.461333 27.363556-14.904889 37.12a50.659556 50.659556 0 0 1-35.982222 15.36c-13.312 0-26.538667-5.632-35.982222-15.36a54.385778 54.385778 0 0 1-14.904889-37.12z m-6.4-260.323556c0-13.738667 5.461333-27.477333 14.904889-37.233778 9.443556-9.728 22.670222-15.36 36.096-15.36a50.915556 50.915556 0 0 1 36.096 15.36 53.987556 53.987556 0 0 1 0 74.439111 50.716444 50.716444 0 0 1-36.124444 15.36 50.915556 50.915556 0 0 1-36.067556-15.36 53.959111 53.959111 0 0 1-14.904889-37.205333z m0-261.518222c0-13.738667 5.461333-27.477333 14.904889-37.233778 9.443556-9.728 22.670222-15.36 36.096-15.36a50.915556 50.915556 0 0 1 36.096 15.36 53.987556 53.987556 0 0 1 0 74.439111 50.716444 50.716444 0 0 1-36.124444 15.36 50.915556 50.915556 0 0 1-36.067556-15.36 54.357333 54.357333 0 0 1-14.904889-37.205333zM919.04 646.144c0-27.704889-19.911111-50.119111-44.600889-50.119111H345.884444c-24.661333 0-44.600889 22.414222-44.600888 50.119111 0 27.676444 19.939556 50.062222 44.600888 50.062222h528.554667c24.661333 0 44.600889-22.385778 44.600889-50.062222z m0-260.352c0-27.591111-19.911111-50.062222-44.600889-50.062222H345.884444c-24.661333 0-44.600889 22.385778-44.600888 50.062222 0 27.704889 19.939556 50.119111 44.600888 50.119111h528.554667c24.661333 0.113778 44.600889-22.414222 44.600889-50.119111z m0-261.404444c0-27.676444-19.911111-50.062222-44.600889-50.062223H345.884444c-24.661333 0-44.600889 22.385778-44.600888 50.062223 0 27.591111 19.939556 50.005333 44.600888 50.005333h528.554667c24.661333 0.113778 44.600889-22.414222 44.600889-50.005333z"  horiz-adv-x="1024" />


    <glyph glyph-name="jiaoseguanli" unicode="&#58907;" d="M978.944 47.396571a83.090286 83.090286 0 0 1-82.651429 66.633143h-33.865142a125.732571 125.732571 0 0 1 76.507428 115.785143 125.44 125.44 0 0 1-125.074286 125.805714 125.805714 125.805714 0 0 1-48.786285-241.444571c-12.068571 0-24.137143 0-36.278857-0.292571a81.993143 81.993143 0 0 1-79.579429-64.731429c-2.633143-11.995429-1.974857-22.966857-2.56-35.401143-0.292571-7.753143 0-21.796571 0-21.796571h-7.314286c0 17.408 0.146286 24.941714 0 38.107428-0.438857 49.371429-36.571429 84.699429-85.577143 84.845715l-31.451428-0.146286a125.732571 125.732571 0 0 1-50.029714 240.932571c-69.046857 0.073143-125.074286-56.173714-125.147429-125.659428a125.366857 125.366857 0 0 1 75.776-115.565715c-10.678857-0.146286-21.430857-0.073143-32.182857-0.219428a94.939429 94.939429 0 0 1-29.330286-4.900572c-34.377143-11.702857-55.881143-42.788571-56.32-79.725714-0.146286-13.604571 0-27.209143 0-40.374857l0.804572-12.141714A208.676571 208.676571 0 0 0 128.731429 183.222857V217.965714a208.676571 208.676571 0 0 0 204.580571 208.457143c222.573714-0.073143 415.012571 0.219429 639.707429 0.219429h7.606857a27.794286 27.794286 0 0 1 0.219428 3.803428l-0.073143 121.490286a83.382857 83.382857 0 0 1-1.828571 17.115429 83.090286 83.090286 0 0 1-82.724571 66.56c-11.264 0.146286-22.528 0-33.792 0a125.732571 125.732571 0 0 1 76.434285 115.785142A125.44 125.44 0 0 1 813.933714 877.348571a125.805714 125.805714 0 0 1-48.932571-241.517714c-12.068571 0-24.137143 0-36.205714-0.292571a81.993143 81.993143 0 0 1-79.579429-64.731429c-2.633143-12.068571-2.048-22.966857-2.56-35.401143-0.365714-7.753143-0.073143-21.796571-0.073143-21.796571h-7.168v38.034286c-0.512 49.371429-36.717714 84.772571-85.723428 84.845714-10.459429 0.073143-20.918857-0.073143-31.378286-0.073143A125.732571 125.732571 0 0 1 472.283429 877.348571c-69.046857 0-125.074286-56.173714-125.220572-125.659428a125.366857 125.366857 0 0 1 75.849143-115.565714l-32.182857-0.219429a94.939429 94.939429 0 0 1-29.403429-4.973714c-34.377143-11.702857-55.808-42.715429-56.246857-79.725715-0.146286-13.531429 0-27.136 0-40.301714l1.097143-16.530286A278.381714 278.381714 0 0 1 59.245714 217.965714v-34.742857a278.308571 278.308571 0 0 1 243.273143-275.821714l-0.219428-2.413714v-0.146286c243.053714-0.146286 438.491429 0.146286 670.72 0.146286h7.606857a27.794286 27.794286 0 0 1 0.219428 3.803428v121.563429c-0.073143 5.705143-0.731429 11.483429-1.901714 17.042285z"  horiz-adv-x="1024" />


    <glyph glyph-name="jigouguanli" unicode="&#58909;" d="M711.899286 383.999634h182.491298v-365.714024h94.427361v-146.28561H39.863194v146.28561h672.036092V383.999634zM602.404507 383.999634v-365.714024H420.059494V383.999634H602.404507zM310.345287 383.999634v-365.714024H127.853989V383.999634H310.345287zM512 895.999269a28.525694 28.525694 0 0 0 11.337135-2.34057l5.046853-2.779427 483.400798-346.184895a26.550838 26.550838 0 0 0 9.65485-30.719978 27.940551 27.940551 0 0 0-20.187414-18.066273l-5.851424-0.585143H28.599202a25.892553 25.892553 0 0 0-26.038838 18.651416 26.33141 26.33141 0 0 0 5.266282 26.623981l4.388568 4.095997L495.689155 890.879272A28.013694 28.013694 0 0 0 512 895.999269z"  horiz-adv-x="1024" />


    <glyph glyph-name="yonghuguanli" unicode="&#58910;" d="M1023.96343 63.993143V127.990857h-56.976251a166.394057 166.394057 0 0 1-28.744116 67.874148l39.642013 40.958537-38.398629 38.983751-40.300275-40.958538a160.615978 160.615978 0 0 1-67.215885 27.573873v57.561373H767.972572v-56.976251c-24.501982-4.388415-47.68744-14.262348-67.874147-28.744117l-40.958537 39.642013-38.983751-38.398628 40.958537-40.300275a160.615978 160.615978 0 0 1-27.573872-67.215886h-57.561373v-63.997714h56.976251c4.388415-24.501982 14.262348-47.68744 28.744116-67.874147l-39.642012-40.958537 38.398628-38.983751 40.300275 40.958537c20.040427-14.189208 43.006464-23.624299 67.215885-27.573872V-128h63.997715v56.976251c24.501982 4.388415 47.68744 14.262348 67.874147 28.744116l40.958537-39.642013 38.983751 38.398629-40.958537 40.300275c14.189208 20.040427 23.624299 43.006464 27.573872 67.215885H1023.96343z m-224.028571-51.856434a83.818721 83.818721 0 1 0 0 167.710582 83.818721 83.818721 0 0 0 0-167.710582zM511.981715 895.96343a239.388022 239.388022 0 1 1 0-478.702904A239.388022 239.388022 0 0 1 511.981715 895.96343zM0-94.721189V-128h592.582265a352.023999 352.023999 0 0 0 80.015428 519.003178A511.981715 511.981715 0 0 1 0-94.721189z"  horiz-adv-x="1024" />


    <glyph glyph-name="biaoqianluoji" unicode="&#58900;" d="M834.852571 782.189714c74.971429 0 132.242286-59.099429 132.242286-136.484571v-637.147429c0-77.385143-57.270857-136.557714-132.242286-136.557714H217.6c-74.971429 0-132.242286 59.172571-132.242286 136.557714v637.074286c0 77.458286 57.270857 136.557714 132.242286 136.557714h145.554286c4.388571 13.677714 8.777143 22.820571 13.165714 36.425143C402.797714 855.04 446.829714 896 521.874286 896c74.898286 0 119.003429-40.96 145.408-77.385143 13.238857-13.604571 17.627429-22.674286 22.089143-36.425143h145.481142z m-308.662857-417.133714c27.062857 0 45.056 17.993143 45.056 45.056s-17.993143 44.982857-45.056 44.982857H301.056c-27.062857 0-45.056-17.993143-45.056-44.982857 0-27.062857 17.993143-45.056 45.056-45.056h225.133714z m225.28-180.150857c26.989714 0 44.982857 17.993143 44.982857 44.982857 0 27.062857-17.993143 45.056-45.056 45.056H301.056c-27.062857 0-45.056-17.993143-45.056-45.056s17.993143-44.982857 45.056-44.982857h450.340571z m-225.28 427.885714c27.062857 0 45.056 17.993143 45.056 44.982857v22.528c0 27.062857-17.993143 45.056-45.056 45.056-26.989714 0-44.982857-17.993143-44.982857-45.056v-22.528c0-27.062857 17.993143-45.056 44.982857-45.056z"  horiz-adv-x="1024" />


    <glyph glyph-name="biaoqianzhuti" unicode="&#58901;" d="M835.072-35.766857L512 130.194286 188.928-35.84A29.257143 29.257143 0 0 0 146.285714-9.728V822.857143h731.428572v-832.585143a29.257143 29.257143 0 0 0-42.642286-26.038857z"  horiz-adv-x="1024" />


    <glyph glyph-name="huizongbiaoqianbiao" unicode="&#58904;" d="M426.788571 801.28h170.276572a46.811429 46.811429 0 0 1 46.153143 47.396571 46.811429 46.811429 0 0 1-46.08 47.323429H426.715429a46.811429 46.811429 0 0 1-46.153143-47.323429 46.811429 46.811429 0 0 1 46.153143-47.396571z m477.915429 47.542857H709.778286c0-52.443429-41.398857-94.72-92.379429-94.72H406.674286c-51.126857 0-92.379429 42.422857-92.379429 94.646857H119.296A46.811429 46.811429 0 0 1 73.142857 801.426286v-710.656C73.142857-13.897143 155.867429-98.742857 257.901714-98.742857h508.196572c102.034286 0 184.758857 84.845714 184.758857 189.44V801.353143a46.811429 46.811429 0 0 1-46.153143 47.542857zM373.394286 517.12h277.065143v-47.323429H373.394286V517.12z m369.517714-379.026286H281.088v47.323429h461.824v-47.323429z m0 165.814857H281.088v47.323429h461.824v-47.323429z"  horiz-adv-x="1024" />


    <glyph glyph-name="biaoqiandingyi" unicode="&#58905;" d="M184.070762-61.156261A126.154758 126.154758 0 0 0 146.334034 30.699029V534.001664c0 75.107789 37.736728 142.975393 101.947672 182.906116L473.97074 879.117202a87.101633 87.101633 0 0 0 102.825269 0l225.615901-162.209422a213.329524 213.329524 0 0 0 101.947671-182.906116v-503.302635c0-71.889929-58.506554-130.177084-130.030817-129.445752H276.364852a125.789092 125.789092 0 0 0-92.29409 37.590462z m244.923064 504.033966c25.230952-25.596618 59.969218-40.07699 96.316415-39.930723a136.027739 136.027739 0 0 1 136.539672 135.80834 136.027739 136.027739 0 0 1-136.539672 135.808339 136.027739 136.027739 0 0 1-136.466538-135.808339c0.731332-37.517328 15.211704-71.085464 40.150123-95.804483zM556.611248 569.910062c8.044651-7.971518 13.675907-18.283298 13.675907-32.763671 0-25.523484-20.038495-45.488846-45.781379-45.488846a45.854512 45.854512 0 0 0-32.617404 13.310241 44.391848 44.391848 0 0 0-13.163975 32.178605c0 25.596618 20.111628 45.561979 45.781379 45.56198 12.871442 0 24.133954-4.753658 32.178605-12.798309z m146.997718-339.484283a43.733649 43.733649 0 0 1 44.903781 44.757515 45.12318 45.12318 0 0 1-45.708246 45.488846H339.844463a45.12318 45.12318 0 0 1-45.781378-45.488846c0-25.596618 20.038495-45.561979 45.781378-45.56198L703.535833 230.352646z m-152.628974-161.331824a43.806783 43.806783 0 0 1 44.976914 44.684381 45.12318 45.12318 0 0 1-45.708246 45.56198h-204.041609a45.12318 45.12318 0 0 1-45.708245-45.56198c0-25.596618 20.038495-45.488846 45.708245-45.488846l204.772941 0.731332z"  horiz-adv-x="1024" />


    <glyph glyph-name="biaoqianfenlei" unicode="&#58906;" d="M573.513143 386.340571V602.697143a216.210286 216.210286 0 0 0 42.057143 130.779428 206.994286 206.994286 0 0 0 118.125714 81.042286 213.430857 213.430857 0 0 0 208.237714-52.150857c33.206857-30.208 55.515429-70.656 63.268572-114.834286a217.6 217.6 0 0 0-180.662857-257.682285c-12.434286-2.121143-25.014857-3.145143-37.668572-3.145143-69.558857-0.219429-139.117714 0-208.676571 0l-4.681143-0.292572z m-63.926857 0H294.692571a219.648 219.648 0 0 0-215.771428 170.569143 217.380571 217.380571 0 0 0 69.851428 212.260572 216.722286 216.722286 0 0 0 291.108572-6.729143c35.766857-33.426286 59.245714-77.897143 66.706286-126.244572a212.114286 212.114286 0 0 0 2.925714-33.865142c0.292571-70.729143 0-141.458286 0-212.260572l0.073143-3.657143z m0-63.780571v-215.186286a214.016 214.016 0 0 0-56.32-148.114285 209.188571 209.188571 0 0 0-124.342857-68.973715 212.333714 212.333714 0 0 0-194.56 64.073143 204.8 204.8 0 0 0-56.393143 107.154286 210.505143 210.505143 0 0 0 48.274285 184.612571 216.064 216.064 0 0 0 128 72.484572 231.131429 231.131429 0 0 0 42.276572 3.803428h208.384l4.681143 0.146286z m63.926857-2.486857h216.795428a218.112 218.112 0 0 0 121.490286-35.108572c44.470857-27.794286 76.580571-71.533714 89.746286-122.294857a218.550857 218.550857 0 0 0-154.843429-268.507428 198.217143 198.217143 0 0 0-72.411428-6.217143 215.917714 215.917714 0 0 0-179.785143 124.708571 199.972571 199.972571 0 0 0-19.968 70.802286 231.936 231.936 0 0 0-1.024 23.478857V320.146286v-0.073143z"  horiz-adv-x="1024" />


    <glyph glyph-name="jixichaxun" unicode="&#58882;" d="M669.988571 253.293714c-53.028571 0-96.036571-42.057143-96.036571-93.988571s43.008-94.061714 96.036571-94.061714 95.963429 42.130286 95.963429 94.061714c0 51.931429-42.934857 93.988571-95.963429 93.988571zM824.32 822.857143H210.285714A63.414857 63.414857 0 0 1 146.285714 760.173714v-752.347428c0-34.596571 28.672-62.683429 64-62.683429h614.034286a68.022857 68.022857 0 0 1 16.822857 2.194286l-82.944 81.188571c-25.307429-16.457143-55.588571-25.965714-88.210286-25.965714-88.429714 0-160.036571 70.144-160.036571 156.745143 0 86.601143 71.68 156.745143 160.036571 156.745143 88.429714 0 159.963429-70.217143 159.963429-156.745143 0-31.963429-9.801143-61.659429-26.477714-86.454857l82.651428-81.115429a60.562286 60.562286 0 0 1 2.194286 16.091429V760.173714A63.414857 63.414857 0 0 1 824.32 822.857143zM475.867429 392.996571a32.182857 32.182857 0 0 0-22.601143-9.216L325.266286 384a31.744 31.744 0 0 0-31.963429 31.378286c0 8.557714 3.584 16.457143 9.362286 22.089143a32.182857 32.182857 0 0 0 22.674286 9.216l128-0.219429c17.627429 0 32.036571-14.043429 32.036571-31.305143a31.451429 31.451429 0 0 0-9.508571-22.162286z m256 125.586286a32.182857 32.182857 0 0 0-22.601143-9.216h-384a31.744 31.744 0 0 0-31.963429 31.378286c0 8.630857 3.584 16.457143 9.362286 22.162286a32.182857 32.182857 0 0 0 22.674286 9.142857h384c17.554286 0 31.963429-14.043429 31.963428-31.305143 0-8.630857-3.657143-16.457143-9.435428-22.162286z m0 125.366857a32.182857 32.182857 0 0 0-22.601143-9.142857h-384a31.744 31.744 0 0 0-31.963429 31.305143c0 8.630857 3.584 16.457143 9.362286 22.162286a32.182857 32.182857 0 0 0 22.674286 9.216h384c17.554286 0 31.963429-14.116571 31.963428-31.378286 0-8.630857-3.657143-16.457143-9.435428-22.162286z"  horiz-adv-x="1024" />


    <glyph glyph-name="shouqi" unicode="&#58883;" d="M511.829333 227.84l358.229334 397.909333a40.021333 40.021333 0 1 0 59.477333-53.589333L548.522667 149.077333a39.936 39.936 0 0 0-36.693334-22.016 39.850667 39.850667 0 0 0-36.693333 22.016L94.293333 572.16a40.021333 40.021333 0 0 0 59.392 53.589333L511.829333 227.84z"  horiz-adv-x="1024" />


    <glyph glyph-name="zhankai" unicode="&#58884;" d="M511.829333 540.16l358.229334-397.909333a40.021333 40.021333 0 1 1 59.477333 53.589333L548.522667 618.922667a39.936 39.936 0 0 1-36.693334 22.016 39.850667 39.850667 0 0 1-36.693333-22.016L94.293333 195.84a40.021333 40.021333 0 0 1 59.392-53.589333L511.829333 540.16z"  horiz-adv-x="1024" />


    <glyph glyph-name="quanxianguanli" unicode="&#58885;" d="M894.528 298.048C845.888 379.456 875.136 483.776 960 531.2l-91.264 152.512a179.84 179.84 0 0 0-88.768-23.232c-97.536 0-176.576 76.8-176.576 171.52H420.864c0.256-29.248-7.36-58.88-23.552-85.952-48.704-81.472-157.056-109.12-242.048-61.952L64 531.584c26.24-14.4 49.024-35.456 65.216-62.528 48.64-81.28 19.52-185.408-65.024-232.96l91.264-152.512a179.84 179.84 0 0 0 88.32 23.04c97.216 0 176.064-76.352 176.64-170.624H602.88c-0.064 28.928 7.488 58.24 23.552 85.12 48.64 81.28 156.736 108.992 241.664 62.08l91.264 152.512a172.032 172.032 0 0 0-64.832 62.336zM512 202.56c-103.872 0-188.032 81.28-188.032 181.44 0 100.224 84.16 181.44 188.032 181.44 103.872 0 188.032-81.28 188.032-181.44 0-100.224-84.16-181.44-188.032-181.44z"  horiz-adv-x="1024" />


    <glyph glyph-name="shujucuiqu" unicode="&#58887;" d="M938.944 349.76l-142.976 351.168h-154.112v-27.008h117.632l96.448-320.704h-207.296l-147.264-126.144-156.352 126.08H140.032L236.416 673.92h119.936v27.008H204.48L64 344.768h0.768A11.776 11.776 0 0 1 64 340.48v-360.384c0-6.976 6.08-12.608 13.568-12.672h852.096c3.584 0 7.04 1.344 9.6 3.712a12.16 12.16 0 0 1 3.968 8.96V340.48a12.224 12.224 0 0 1-4.288 9.216zM432.384 545.28H353.792L503.232 381.44l145.28 163.712H569.92v177.28H432.384v-177.28z m0 200.064h137.536V768h-137.6v-22.72z m-254.656-718.72l-23.744 29.12 219.904 153.984 95.04-116.352 247.552 150.464-47.552 58.24 137.984-17.792-19.2-127.744-47.488 58.24-278.912-172.48-95.104 116.352-188.48-132.032z"  horiz-adv-x="1024" />


    <glyph glyph-name="shouye" unicode="&#58889;" d="M491.2 832L0 318.336v-26.752h121.856l0.128-324.48h307.2l-0.128 191.168h122.688v-191.232h309.184V289.92l121.408-0.512v29.632l-184.704 187.072-0.448 286.976h-121.6l-0.64-158.976z"  horiz-adv-x="1024" />


    <glyph glyph-name="shujufuwu" unicode="&#58892;" d="M244.352 277.312c25.728 0 46.528 19.136 46.528 42.688V682.688c0 23.552-20.8 42.624-46.528 42.624-25.664 0-46.528-19.072-46.528-42.624V320c0-23.552 20.864-42.688 46.528-42.688z m628.352-42.624H683.52a46.144 46.144 0 0 1-35.584-17.536 165.76 165.76 0 0 0-124.288-46.464 165.76 165.76 0 0 0-124.288 46.464 46.144 46.144 0 0 1-35.584 17.536H174.528c-25.664 0-46.528-19.136-46.528-42.688v-149.312c0-23.616 20.864-42.688 46.528-42.688h698.24c25.664 0 46.528 19.072 46.528 42.688V192c0 23.552-20.864 42.688-46.592 42.688zM384 277.312h395.648c25.664 0 46.528 19.136 46.528 42.688V725.312c0 23.616-20.864 42.688-46.528 42.688H384c-25.728 0-46.528-19.072-46.528-42.688V320c0-23.552 20.8-42.688 46.528-42.688z m46.528 384h302.592c12.8 0 23.232-9.536 23.232-21.312 0-11.776-10.432-21.312-23.232-21.312H430.528c-12.8 0-23.232 9.536-23.232 21.312 0 11.776 10.368 21.312 23.232 21.312z m0-106.624h256c12.864 0 23.296-9.6 23.296-21.376 0-11.776-10.432-21.312-23.296-21.312h-256c-12.8 0-23.232 9.6-23.232 21.312 0 11.776 10.368 21.376 23.232 21.376z m0-106.688h279.296c12.8 0 23.296-9.6 23.296-21.312 0-11.776-10.432-21.376-23.296-21.376H430.528c-12.8 0-23.232 9.6-23.232 21.376 0 11.776 10.368 21.312 23.232 21.312z"  horiz-adv-x="1024" />


    <glyph glyph-name="shujujianmo" unicode="&#58894;" d="M810.642286-21.357714v-42.642286H213.357714v42.642286h597.284572z m85.357714 117.321143v-42.642286H128v42.715428h768z m0 736.036571c35.328 0 64-28.672 64-64v-554.642286a64 64 0 0 0-64-64H128a64 64 0 0 0-64 64V768c0 35.328 28.672 64 64 64h768zM522.678857 597.357714h-42.642286v-333.019428h42.642286V597.357714z m170.642286 0h-42.642286v-333.019428h42.642286V597.357714z m-320-128h-42.642286v-199.606857h42.642286V469.357714z"  horiz-adv-x="1024" />


    <glyph glyph-name="shujukaifa" unicode="&#58895;" d="M122.112 697.856h719.104v-652.032h89.728c7.68 0 15.104-3.328 20.544-9.216a32.896 32.896 0 0 0 8.512-22.272c0-8.32-3.072-16.384-8.512-22.272a27.968 27.968 0 0 0-20.544-9.216H93.056a27.968 27.968 0 0 0-20.544 9.216 32.896 32.896 0 0 0-8.512 22.272V800.512C64 817.92 76.992 832 93.056 832s29.056-14.08 29.056-31.488v-102.656z m92.8-494.208c5.44 0 10.688 1.92 14.848 5.504l106.752 103.872 198.016-57.6a22.912 22.912 0 0 1 25.6 9.6l164.16 255.68a22.912 22.912 0 0 1-38.592 24.704L530.88 304.192l-193.408 56.256a22.72 22.72 0 0 1-21.248-4.608l-116.224-111.872a22.912 22.912 0 0 1 14.912-40.32z"  horiz-adv-x="1024" />


    <glyph glyph-name="shujuyuguanli" unicode="&#58897;" d="M550.912 885.174857L929.645714 675.84c26.989714-14.921143 43.739429-43.300571 43.739429-74.093714v-415.451429c0-30.866286-16.749714-59.245714-43.739429-74.093714l-378.733714-209.334857c-25.453714-14.043429-56.32-14.043429-81.92 0l-378.660571 209.261714a84.626286 84.626286 0 0 0-43.812572 74.166857v415.451429c0 30.72 16.822857 59.099429 43.812572 74.020571L468.992 885.174857a84.626286 84.626286 0 0 0 81.92 0zM209.773714 559.908571a42.203429 42.203429 0 0 1 16.530286-57.490285l241.371429-133.339429v-265.874286a42.349714 42.349714 0 0 1 84.626285 0V369.078857l241.298286 133.485714a42.276571 42.276571 0 0 1-40.96 73.947429L510.025143 442.368 267.264 576.512a42.349714 42.349714 0 0 1-57.490286-16.603429z"  horiz-adv-x="1024" />


    <glyph glyph-name="shujuyuanguanli" unicode="&#58899;" d="M914.432 813.494857c34.084571-1.462857 61.659429-28.16 64.585143-62.025143v-742.546285a68.242286 68.242286 0 0 0-59.977143-61.293715H103.350857a68.169143 68.169143 0 0 0-63.341714 64.365715V749.494857a68.022857 68.022857 0 0 0 63.780571 64h810.715429zM263.826286 85.577143a40.96 40.96 0 0 1 40.96 40.96V343.04a40.96 40.96 0 1 1-81.92 0v-216.502857c0-22.674286 18.285714-40.96 40.96-40.96z m493.494857 0a40.96 40.96 0 0 1 40.96 40.96V453.193143a40.96 40.96 0 1 1-81.92 0v-326.509714c0-22.674286 18.285714-40.96 40.96-40.96z m-246.710857 0a40.96 40.96 0 0 1 40.96 40.96v468.114286a40.96 40.96 0 1 1-81.92 0v-468.114286c0-22.674286 18.285714-40.96 40.96-40.96z"  horiz-adv-x="1024" />


    <glyph glyph-name="shujuzhongzhuan" unicode="&#58902;" d="M274.651429 810.861714c9.508571-49.517714 50.322286-85.065143 97.718857-85.065143h279.259428c47.396571 0 88.283429 35.547429 97.718857 85.065143h81.773715c66.048 0 119.588571-56.978286 119.734857-127.414857v-596.260571c0-33.865143-12.653714-66.267429-35.108572-90.185143-22.454857-23.844571-52.882286-37.302857-84.626285-37.229714H192.804571c-65.974857 0-119.515429 57.051429-119.661714 127.414857V683.446857c0 33.865143 12.653714 66.267429 35.108572 90.185143 22.454857 23.917714 52.882286 37.302857 84.626285 37.302857h81.773715z m37.888-255.268571a39.497143 39.497143 0 0 1-34.596572-21.284572 45.056 45.056 0 0 1 0-42.569142 39.497143 39.497143 0 0 1 34.596572-21.284572h239.323428c22.089143 0 39.936 19.017143 39.936 42.569143 0 23.405714-17.846857 42.496-39.936 42.496H312.539429z m0-170.276572c-22.016 0-39.936-19.017143-39.936-42.569142 0-23.405714 17.92-42.496 39.936-42.496h398.921142c22.016 0 39.936 19.017143 39.936 42.496 0 23.552-17.92 42.569143-39.936 42.569142H312.539429z m0-170.203428c-22.089143 0-39.936-19.017143-39.936-42.569143 0-23.478857 17.846857-42.569143 39.936-42.569143h239.323428c22.089143 0 39.936 19.017143 39.936 42.569143 0 23.478857-17.846857 42.569143-39.936 42.569143H312.539429zM372.297143 896h279.259428c33.060571 0 59.830857-28.525714 59.830858-63.853714 0-35.254857-26.770286-63.780571-59.830858-63.780572H372.370286c-33.060571 0-59.830857 28.525714-59.830857 63.780572S339.309714 896 372.297143 896z"  horiz-adv-x="1024" />


    <glyph glyph-name="shujuzichan" unicode="&#58903;" d="M137.856 101.504a43.84 43.84 0 0 1-9.856-26.176c0-66.816 183.36-120.96 409.6-120.96s409.6 54.144 409.6 120.96a43.84 43.84 0 0 1-9.856 26.24c-40.512-54.272-203.968-94.912-399.744-94.912-195.84 0-359.232 40.64-399.744 94.848zM947.2 618.752C947.2 701.184 763.84 768 537.6 768S128 701.184 128 618.752C128 536.32 311.36 469.504 537.6 469.504s409.6 66.816 409.6 149.248z m-590.464-214.4c-109.76 16-191.808 46.08-218.88 82.368a43.84 43.84 0 0 1-9.856-26.24c0-47.616 93.376-88.704 228.736-108.416v52.288z m361.728-52.288c135.36 19.712 228.736 60.8 228.736 108.48a43.84 43.84 0 0 1-9.856 26.176c-27.072-36.288-109.12-66.368-218.88-82.368v-52.288z m0-129.664c135.36 19.776 228.736 60.864 228.736 108.48a43.84 43.84 0 0 1-9.856 26.24c-27.072-36.288-109.12-66.368-218.88-82.368v-52.352z m-361.728 52.352c-109.76 16-191.808 46.08-218.88 82.304A43.84 43.84 0 0 1 128 330.88c0-47.616 93.376-88.704 228.736-108.48v52.352z m0-128.832c-109.76 16-191.808 46.08-218.88 82.368a43.84 43.84 0 0 1-9.856-26.24c0-47.616 93.376-88.704 228.736-108.416v52.288z m361.728-52.288c135.36 19.712 228.736 60.8 228.736 108.48a43.84 43.84 0 0 1-9.856 26.176c-27.072-36.224-109.12-66.304-218.88-82.368v-52.288z m-184.96-43.712a33.536 33.536 0 0 1 17.024 4.544 15.168 15.168 0 0 1 7.872 14.08l0.64 18.752c35.648 2.24 63.616 10.944 83.84 26.176a71.68 71.68 0 0 1 30.208 60.16 63.616 63.616 0 0 1-9.408 35.2 85.632 85.632 0 0 1-24.96 24.96 158.912 158.912 0 0 1-34.88 17.28 754.752 754.752 0 0 1-39.168 12.672l3.2 83.392c5.76-1.536 10.88-3.456 15.104-5.76l10.752-5.696c4.544-2.88 9.472-5.44 14.72-7.68a45.312 45.312 0 0 1 18.048-3.328c11.392 0 19.392 2.304 24.192 6.912a23.68 23.68 0 0 1 7.232 17.92c0 3.584-1.856 7.744-5.568 12.8a71.04 71.04 0 0 1-16.768 14.848 140.352 140.352 0 0 1-27.712 13.888 186.24 186.24 0 0 1-38.784 9.856l1.28 23.936a15.36 15.36 0 0 1-7.936 13.952 32 32 0 0 1-33.92 0 15.232 15.232 0 0 1-7.872-13.952l-0.64-21.568c-37.504-1.536-66.56-10.496-87.04-26.624a75.84 75.84 0 0 1-30.848-62.528c0-13.44 3.2-24.96 9.728-34.56 6.528-9.6 15.104-17.792 25.856-24.64 10.688-6.912 22.72-12.736 35.904-17.536 13.184-4.8 26.624-9.28 40-13.44l-3.136-84.864c-16 3.84-28.352 9.088-37.12 15.872a129.664 129.664 0 0 1-15.168 8.832 47.552 47.552 0 0 1-18.944 4.608c-21.824 0-32.768-7.552-32.768-22.592 0-7.68 3.2-14.592 9.792-20.8 6.464-6.272 14.848-11.712 24.96-16.32 10.048-4.672 21.12-8.576 33.28-11.776 12.16-3.2 23.808-5.568 34.688-7.168l-0.576-21.12c0-6.4 2.624-11.072 7.872-14.08 5.312-3.072 10.88-4.608 17.024-4.608z m55.744 141.696a27.392 27.392 0 0 0 10.112-21.312 28.16 28.16 0 0 0-10.432-23.552 57.664 57.664 0 0 0-28.608-10.56l2.56 70.976c10.816-4.48 19.648-9.664 26.368-15.552zM476.352 316.544c0 10.176 3.84 18.368 11.392 24.384a56.384 56.384 0 0 0 30.336 11.008l-2.432-72.32a106.24 106.24 0 0 0-28.48 15.04 26.56 26.56 0 0 0-10.816 21.888z"  horiz-adv-x="1024" />


    <glyph glyph-name="tongjizhouqi" unicode="&#58908;" d="M994.742857 651.776v-637.44c0-70.509714-51.565714-127.634286-115.2-127.634286H184.393143l-20.553143-0.073143c-22.381714 0.219429-33.206857 1.901714-47.177143 7.972572-28.233143 12.434286-43.52 40.228571-43.52 77.238857V167.058286l365.348572 224.914285a35.108571 35.108571 0 0 0 26.331428 4.388572l153.161143-34.816a35.474286 35.474286 0 0 1 30.500571 7.460571L994.742857 651.702857zM956.342857 822.857143h1.389714l2.267429-0.219429-3.657143 0.219429c2.340571 0 4.608-0.219429 6.802286-0.731429l1.170286-0.219428c2.925714-0.658286 5.851429-1.682286 8.557714-3.145143a39.497143 39.497143 0 0 0 13.897143-12.434286l0.292571-0.512 0.585143-0.804571a43.373714 43.373714 0 0 0 1.755429-2.998857l-2.340572 3.803428a45.933714 45.933714 0 0 0 7.68-24.649143v-0.877714l-0.073143-2.340571-0.146285-1.682286 0.219428 4.022857a46.665143 46.665143 0 0 0-3.657143-18.285714 42.130286 42.130286 0 0 0-11.337143-15.433143l-0.365714-0.292572-307.2-255.341714a35.547429 35.547429 0 0 0-30.573714-7.68l-164.352 36.425143a35.108571 35.108571 0 0 1-26.112-4.534857L130.194286 317.44A36.132571 36.132571 0 0 0 80.457143 329.874286l-2.413714 4.169143a45.494857 45.494857 0 0 0 11.190857 55.222857l3.730285 2.633143 345.6 212.845714a35.108571 35.108571 0 0 0 26.185143 4.534857l158.354286-35.108571a35.547429 35.547429 0 0 1 30.573714 7.68l187.465143 155.867428H725.942857c-21.211429 0-38.4 19.017143-38.4 42.569143 0 23.478857 17.188571 42.569143 38.4 42.569143h230.4z"  horiz-adv-x="1024" />


    <glyph glyph-name="xiangmuguanli1" unicode="&#58911;" d="M148.48 709.632c12.288 14.994286 24.576 29.037714 36.864 41.984 9.508571 11.629714 19.602286 22.528 30.208 32.768a721.188571 721.188571 0 0 0 24.064 22.528 166.034286 166.034286 0 0 0 24.064 16.384 70.217143 70.217143 0 0 0 34.304 7.168h442.368c8.850286 0 19.090286-1.901714 30.72-5.632 11.629714-3.730286 22.893714-11.410286 33.792-23.04 5.485714-6.802286 12.653714-15.36 21.504-25.6l25.6-29.696c9.508571-11.629714 19.090286-23.917714 28.672-36.864H148.48z m831.488-306.176c0-21.869714-7.168-40.228571-21.504-55.296-14.336-14.994286-34.816-22.528-61.44-22.528H140.288c-25.965714 0-46.592 7.533714-61.952 22.528a74.313143 74.313143 0 0 0-23.04 55.296V549.888c0 21.869714 6.802286 40.594286 20.48 56.32 13.677714 15.725714 35.84 23.552 66.56 23.552H896c31.451429 0 53.248-7.826286 65.536-23.552 12.288-15.725714 18.432-34.450286 18.432-56.32v-146.432zM593.92 477.184c0 8.850286-2.194286 15.213714-6.656 18.944a26.843429 26.843429 0 0 1-17.92 5.632H465.92a24.941714 24.941714 0 0 1-18.432-7.168 23.698286 23.698286 0 0 1-7.168-17.408c0.731429-8.850286 3.218286-15.36 7.68-19.456 4.388571-4.096 10.386286-6.144 17.92-6.144h103.424c15.725714 0 23.917714 8.557714 24.576 25.6z m382.976-444.416c0-21.869714-8.338286-40.594286-25.088-56.32-16.749714-15.725714-38.034286-23.186286-64-22.528H137.216c-21.869714 0-41.472 7.68-58.88 23.04-17.408 15.36-26.112 36.717714-26.112 64V178.176c0 22.528 7.021714 41.472 20.992 56.832 13.970286 15.36 36.352 23.04 67.072 23.04h751.616c28.672 0 50.029714-7.68 64-23.04 13.970286-15.36 20.992-33.938286 20.992-55.808v-146.432z m-386.048 72.704a24.649143 24.649143 0 0 1-6.656 17.408 23.259429 23.259429 0 0 1-17.92 7.168H462.848a24.941714 24.941714 0 0 1-18.432-7.168 23.698286 23.698286 0 0 1-7.168-17.408c0-6.802286 2.413714-12.653714 7.168-17.408s10.971429-7.168 18.432-7.168h103.424a23.259429 23.259429 0 0 1 17.92 7.168 24.649143 24.649143 0 0 1 6.656 17.408z"  horiz-adv-x="1024" />


    <glyph glyph-name="yewubankuai" unicode="&#58914;" d="M211.236571 377.563429c0 25.6 25.6 51.2 51.2 51.2s51.2-19.163429 51.2-51.2h396.8c0 25.6 25.6 51.2 51.2 51.2s51.2-19.163429 51.2-51.2H1024V569.563429c0 64.073143-51.2 115.2-115.2 115.2h-134.436571v44.836571C774.436571 793.6 723.236571 844.8 659.236571 844.8H364.763429c-64 0-115.2-51.2-115.2-115.2v-51.2H115.273143C51.2 678.4 0 627.2 0 563.2v-499.2c0-64 51.2-115.2 115.2-115.2h793.6c64 0 115.2 51.2 115.2 115.2V307.2h-211.163429v-51.2c0-25.6-25.6-51.2-51.2-51.2s-51.2 25.6-51.2 51.2v51.2H313.636571v-51.2c0-25.6-25.6-51.2-51.2-51.2s-51.2 25.6-51.2 51.2v51.2H0v64c70.436571 0 140.8 6.363429 211.236571 6.363429z m108.763429 352.036571c0 25.6 19.236571 44.763429 44.763429 44.763429h294.4c25.6 0 44.836571-19.163429 44.836571-44.763429v-51.2h-384v51.2z"  horiz-adv-x="1024" />


    <glyph glyph-name="yewuguihua" unicode="&#58916;" d="M866.432 305.28h78.784v-354.56H78.784V305.28h78.72V738.368h157.568V817.28h551.36v-512z m-78.72 0V738.368H393.856V305.28h39.36v-78.72h157.568v78.72h196.928z m-472.64 0V659.648h-78.72v-354.496h78.72z m157.568 354.432h236.288v-78.784H472.64v78.72z m0-157.568h236.288v-78.72H472.64v78.72z"  horiz-adv-x="1024" />




  </font>
</defs>
</svg>
